<svg width="100" height="100" viewBox="0 0 100 100" fill="none" xmlns="http://www.w3.org/2000/svg">
<circle cx="50" cy="50" r="50" fill="white"/>
<path d="M58.762 26.4831C58.1498 23.3182 55.2926 20.9102 52.0273 20.9102H46.6532C43.3879 20.9102 40.5307 23.3182 39.9185 26.4831C39.0341 26.7583 38.4219 27.5152 38.4219 28.4784C38.4219 29.0288 38.626 29.5104 38.9661 29.8544C38.626 30.1984 38.4219 30.6801 38.4219 31.2305C38.4219 32.1937 39.0341 32.9505 39.8504 33.2257C40.4627 36.4594 43.3198 38.7987 46.5851 38.7987H51.9593C55.2246 38.7987 58.0817 36.3906 58.694 33.2257C59.5103 32.9505 60.1225 32.1937 60.1225 31.2305C60.1225 30.6801 59.9185 30.1984 59.5783 29.8544C59.9185 29.5104 60.1225 29.0288 60.1225 28.4784C60.1906 27.5152 59.5783 26.7583 58.762 26.4831ZM46.6532 22.2862H52.0273C54.5443 22.2862 56.7212 24.0063 57.3334 26.4143H57.0613L56.9253 26.2767C56.5851 25.9327 56.177 25.7263 55.6328 25.7263H55.2246C54.7484 25.7263 54.2722 25.9327 53.9321 26.2767C53.864 26.3455 53.728 26.4143 53.5919 26.4143H53.1838C53.0477 26.4143 52.9117 26.3455 52.8436 26.2767C52.5035 25.9327 52.0953 25.7263 51.5511 25.7263H51.143C50.6668 25.7263 50.1906 25.9327 49.8504 26.2767C49.7824 26.3455 49.6464 26.4143 49.5103 26.4143H49.1021C48.9661 26.4143 48.83 26.3455 48.762 26.2767C48.4219 25.9327 48.0137 25.7263 47.4695 25.7263H47.0613C46.5851 25.7263 46.1089 25.9327 45.7688 26.2767C45.7008 26.3455 45.5647 26.4143 45.4287 26.4143H45.0205C44.8845 26.4143 44.7484 26.3455 44.6804 26.2767C44.3402 25.9327 43.9321 25.7263 43.3879 25.7263H42.9797C42.5035 25.7263 42.0273 25.9327 41.6872 26.2767L41.5511 26.4143H41.279C41.9593 24.0063 44.1362 22.2862 46.6532 22.2862ZM40.4627 27.7904H42.0953L42.6396 27.24C42.7756 27.1712 42.9117 27.1024 42.9797 27.1024H43.3879C43.5239 27.1024 43.66 27.1712 43.728 27.24C44.0681 27.584 44.5443 27.7904 45.0205 27.7904H45.4287C45.9049 27.7904 46.3811 27.584 46.7212 27.24C46.8572 27.1712 46.9933 27.1024 47.0613 27.1024H47.4695C47.6055 27.1024 47.7416 27.1712 47.8096 27.24C48.1498 27.584 48.626 27.7904 49.1021 27.7904H49.5103C49.9865 27.7904 50.4627 27.584 50.8028 27.24C50.9389 27.1712 51.0749 27.1024 51.143 27.1024H51.5511C51.6872 27.1024 51.8232 27.1712 51.8913 27.24C52.2314 27.584 52.7076 27.7904 53.1838 27.7904H53.5919C54.0681 27.7904 54.5443 27.584 54.8845 27.24C55.0205 27.1712 55.1566 27.1024 55.2246 27.1024H55.6328C55.7688 27.1024 55.9049 27.1712 55.9729 27.24L56.5171 27.7904H58.1498C58.5579 27.7904 58.83 28.0656 58.83 28.4784C58.83 28.8912 58.5579 29.1664 58.1498 29.1664H40.4627C40.0545 29.1664 39.7824 28.8912 39.7824 28.4784C39.7824 28.0656 40.1226 27.7904 40.4627 27.7904ZM52.0273 37.4227H46.6532C44.1362 37.4227 41.9593 35.7026 41.347 33.2945H57.4015C56.7212 35.7026 54.5443 37.4227 52.0273 37.4227ZM58.1498 31.9185H40.4627C40.0545 31.9185 39.7824 31.6433 39.7824 31.2305C39.7824 30.8177 40.0545 30.5425 40.4627 30.5425H58.1498C58.5579 30.5425 58.83 30.8177 58.83 31.2305C58.83 31.6433 58.5579 31.9185 58.1498 31.9185Z" fill="#E67285"/>
<path d="M34.8851 64.0495C34.2728 60.8158 31.4157 58.4766 28.1504 58.4766H22.7762C19.5109 58.4766 16.6538 60.8846 16.0415 64.0495C15.1572 64.3247 14.5449 65.0816 14.5449 66.0448C14.5449 66.5952 14.749 67.0768 15.0891 67.4208C14.749 67.7649 14.5449 68.2465 14.5449 68.7969C14.5449 69.7601 15.1572 70.5169 15.9735 70.7921C16.5857 74.0258 19.4429 76.3651 22.7082 76.3651H28.0823C31.3476 76.3651 34.2048 73.957 34.817 70.7921C35.6334 70.5169 36.2456 69.7601 36.2456 68.7969C36.2456 68.2465 36.0415 67.7649 35.7014 67.4208C36.0415 67.0768 36.2456 66.5952 36.2456 66.0448C36.3136 65.0816 35.7014 64.3247 34.8851 64.0495ZM22.7762 59.8526H28.1504C30.6674 59.8526 32.8442 61.5727 33.4565 63.9807H33.1844L33.0483 63.8431C32.7082 63.4991 32.232 63.2927 31.7558 63.2927H31.3476C30.8715 63.2927 30.3953 63.4991 30.0551 63.8431C29.9871 63.9119 29.851 63.9807 29.715 63.9807H29.3068C29.1708 63.9807 29.0347 63.9119 28.9667 63.8431C28.6266 63.4991 28.1504 63.2927 27.6742 63.2927H27.266C26.7898 63.2927 26.3136 63.4991 25.9735 63.8431C25.9055 63.9119 25.7694 63.9807 25.6334 63.9807H25.2252C25.0891 63.9807 24.9531 63.9119 24.8851 63.8431C24.5449 63.4991 24.0687 63.2927 23.5925 63.2927H23.1844C22.7082 63.2927 22.232 63.4991 21.8919 63.8431C21.8238 63.9119 21.6878 63.9807 21.5517 63.9807H21.1436C21.0075 63.9807 20.8715 63.9119 20.8034 63.8431C20.4633 63.4991 19.9871 63.2927 19.5109 63.2927H19.1027C18.6266 63.2927 18.1504 63.4991 17.8102 63.8431L17.6742 63.9807H17.4021C18.0823 61.5727 20.2592 59.8526 22.7762 59.8526ZM16.5857 65.3568H18.2184L18.7626 64.8064C18.8306 64.7376 18.9667 64.6688 19.1027 64.6688H19.5109C19.647 64.6688 19.783 64.7376 19.851 64.8064C20.1912 65.1504 20.6674 65.3568 21.1436 65.3568H21.5517C22.0279 65.3568 22.5041 65.1504 22.8442 64.8064C22.9123 64.7376 23.0483 64.6688 23.1844 64.6688H23.5925C23.7286 64.6688 23.8646 64.7376 23.9327 64.8064C24.2728 65.1504 24.749 65.3568 25.2252 65.3568H25.6334C26.1095 65.3568 26.5857 65.1504 26.9259 64.8064C26.9939 64.7376 27.13 64.6688 27.266 64.6688H27.6742C27.8102 64.6688 27.9463 64.7376 28.0143 64.8064C28.3544 65.1504 28.8306 65.3568 29.3068 65.3568H29.715C30.1912 65.3568 30.6674 65.1504 31.0075 64.8064C31.0755 64.7376 31.2116 64.6688 31.3476 64.6688H31.7558C31.8919 64.6688 32.0279 64.7376 32.0959 64.8064L32.6402 65.3568H34.2728C34.681 65.3568 34.9531 65.632 34.9531 66.0448C34.9531 66.4576 34.681 66.7328 34.2728 66.7328H16.5857C16.1776 66.7328 15.9055 66.4576 15.9055 66.0448C15.9055 65.632 16.1776 65.3568 16.5857 65.3568ZM28.0823 74.9891H22.7082C20.1912 74.9891 18.0143 73.269 17.4021 70.8609H33.4565C32.7762 73.269 30.5993 74.9891 28.0823 74.9891ZM34.2728 69.4849H16.5857C16.1776 69.4849 15.9055 69.2097 15.9055 68.7969C15.9055 68.3841 16.1776 68.1089 16.5857 68.1089H34.2728C34.681 68.1089 34.9531 68.3841 34.9531 68.7969C34.9531 69.1409 34.681 69.4849 34.2728 69.4849Z" fill="#E67285"/>
<path d="M58.9674 64.0495C58.3552 60.8158 55.498 58.4766 52.2327 58.4766H46.8586C43.5933 58.4766 40.7361 60.8846 40.1239 64.0495C39.3076 64.3247 38.6953 65.0816 38.6953 66.0448C38.6953 66.5952 38.8994 67.0768 39.2395 67.4208C38.8994 67.7649 38.6953 68.2465 38.6953 68.7969C38.6953 69.7601 39.3076 70.5169 40.1239 70.7921C40.7361 74.0258 43.5933 76.3651 46.8586 76.3651H52.2327C55.498 76.3651 58.3552 73.957 58.9674 70.7921C59.7837 70.5169 60.396 69.7601 60.396 68.7969C60.396 68.2465 60.1919 67.7649 59.8518 67.4208C60.1919 67.0768 60.396 66.5952 60.396 66.0448C60.396 65.0816 59.7837 64.3247 58.9674 64.0495ZM46.8586 59.8526H52.2327C54.7497 59.8526 56.9266 61.5727 57.5388 63.9807H57.2667L57.1307 63.8431C56.7905 63.4991 56.3144 63.2927 55.8382 63.2927H55.43C54.9538 63.2927 54.4776 63.4991 54.1375 63.8431C54.0695 63.9119 53.9334 63.9807 53.7973 63.9807H53.3892C53.2531 63.9807 53.1171 63.9119 53.049 63.8431C52.7089 63.4991 52.2327 63.2927 51.7565 63.2927H51.3484C50.8722 63.2927 50.396 63.4991 50.0559 63.8431C49.9878 63.9119 49.8518 63.9807 49.7157 63.9807H49.3076C49.1715 63.9807 49.0354 63.9119 48.9674 63.8431C48.6273 63.4991 48.1511 63.2927 47.6749 63.2927H47.2667C46.7905 63.2927 46.3144 63.4991 45.9742 63.8431C45.9062 63.9119 45.7701 63.9807 45.6341 63.9807H45.2259C45.0899 63.9807 44.9538 63.9119 44.8858 63.8431C44.5457 63.4991 44.0695 63.2927 43.5933 63.2927H43.1851C42.7089 63.2927 42.2327 63.4991 41.8926 63.8431L41.7565 63.9807H41.4844C42.1647 61.5727 44.3416 59.8526 46.8586 59.8526ZM40.6681 65.3568H42.3008L42.845 64.8064C42.913 64.7376 43.0491 64.6688 43.1851 64.6688H43.5933C43.7293 64.6688 43.8654 64.7376 43.9334 64.8064C44.2735 65.1504 44.7497 65.3568 45.2259 65.3568H45.6341C46.1103 65.3568 46.5865 65.1504 46.9266 64.8064C46.9946 64.7376 47.1307 64.6688 47.2667 64.6688H47.6749C47.811 64.6688 47.947 64.7376 48.015 64.8064C48.3552 65.1504 48.8314 65.3568 49.3076 65.3568H49.7157C50.1919 65.3568 50.6681 65.1504 51.0082 64.8064C51.0763 64.7376 51.2123 64.6688 51.3484 64.6688H51.7565C51.8926 64.6688 52.0286 64.7376 52.0967 64.8064C52.4368 65.1504 52.913 65.3568 53.3892 65.3568H53.7973C54.2735 65.3568 54.7497 65.1504 55.0899 64.8064C55.1579 64.7376 55.2939 64.6688 55.43 64.6688H55.8382C55.9742 64.6688 56.1103 64.7376 56.1783 64.8064L56.7225 65.3568H58.3552C58.7633 65.3568 59.0354 65.632 59.0354 66.0448C59.0354 66.4576 58.7633 66.7328 58.3552 66.7328H40.6681C40.2599 66.7328 39.9878 66.4576 39.9878 66.0448C39.9878 65.632 40.328 65.3568 40.6681 65.3568ZM52.2327 74.9891H46.8586C44.3416 74.9891 42.1647 73.269 41.5525 70.8609H57.6069C56.9266 73.269 54.7497 74.9891 52.2327 74.9891ZM58.3552 69.4849H40.6681C40.2599 69.4849 39.9878 69.2097 39.9878 68.7969C39.9878 68.3841 40.2599 68.1089 40.6681 68.1089H58.3552C58.7633 68.1089 59.0354 68.3841 59.0354 68.7969C59.0354 69.1409 58.7633 69.4849 58.3552 69.4849Z" fill="#E67285"/>
<path d="M83.0475 64.0495C82.4352 60.8158 79.5781 58.4766 76.3128 58.4766H70.9387C67.6733 58.4766 64.8162 60.8846 64.204 64.0495C63.3876 64.3247 62.7754 65.0816 62.7754 66.0448C62.7754 66.5952 62.9795 67.0768 63.3196 67.4208C62.9795 67.7649 62.7754 68.2465 62.7754 68.7969C62.7754 69.7601 63.3876 70.5169 64.204 70.7921C64.8162 74.0258 67.6733 76.3651 70.9387 76.3651H76.3128C79.5781 76.3651 82.4352 73.957 83.0475 70.7921C83.8638 70.5169 84.4761 69.7601 84.4761 68.7969C84.4761 68.2465 84.272 67.7649 83.9318 67.4208C84.272 67.0768 84.4761 66.5952 84.4761 66.0448C84.5441 65.0816 83.9318 64.3247 83.0475 64.0495ZM70.9387 59.8526H76.3128C78.8298 59.8526 81.0067 61.5727 81.6189 63.9807H81.3468L81.2108 63.8431C80.8706 63.4991 80.3944 63.2927 79.9182 63.2927H79.5101C79.0339 63.2927 78.5577 63.4991 78.2176 63.8431C78.1495 63.9119 78.0135 63.9807 77.8774 63.9807H77.4693C77.3332 63.9807 77.1972 63.9119 77.1291 63.8431C76.789 63.4991 76.3128 63.2927 75.8366 63.2927H75.4284C74.9523 63.2927 74.4761 63.4991 74.1359 63.8431C74.0679 63.9119 73.9318 63.9807 73.7958 63.9807H73.3876C73.2516 63.9807 73.1155 63.9119 73.0475 63.8431C72.7074 63.4991 72.2312 63.2927 71.755 63.2927H71.3468C70.8706 63.2927 70.3944 63.4991 70.0543 63.8431C69.9863 63.9119 69.8502 63.9807 69.7142 63.9807H69.306C69.1699 63.9807 69.0339 63.9119 68.9659 63.8431C68.6257 63.4991 68.1495 63.2927 67.6733 63.2927H67.2652C66.789 63.2927 66.3128 63.4991 65.9727 63.8431L65.8366 63.9807H65.5645C66.2448 61.5727 68.4216 59.8526 70.9387 59.8526ZM64.8162 65.3568H66.4489L66.9931 64.8064C67.0611 64.7376 67.1972 64.6688 67.3332 64.6688H67.7414C67.8774 64.6688 68.0135 64.7376 68.0815 64.8064C68.4216 65.1504 68.8978 65.3568 69.374 65.3568H69.7822C70.2584 65.3568 70.7346 65.1504 71.0747 64.8064C71.1427 64.7376 71.2788 64.6688 71.4148 64.6688H71.823C71.9591 64.6688 72.0951 64.7376 72.1631 64.8064C72.5033 65.1504 72.9795 65.3568 73.4557 65.3568H73.8638C74.34 65.3568 74.8162 65.1504 75.1563 64.8064C75.2244 64.7376 75.3604 64.6688 75.4965 64.6688H75.9046C76.0407 64.6688 76.1767 64.7376 76.2448 64.8064C76.5849 65.1504 77.0611 65.3568 77.5373 65.3568H77.9455C78.4216 65.3568 78.8978 65.1504 79.238 64.8064C79.306 64.7376 79.4421 64.6688 79.5781 64.6688H79.9863C80.1223 64.6688 80.2584 64.7376 80.3264 64.8064L80.8706 65.3568H82.5033C82.9114 65.3568 83.1835 65.632 83.1835 66.0448C83.1835 66.4576 82.9114 66.7328 82.5033 66.7328H64.8162C64.408 66.7328 64.1359 66.4576 64.1359 66.0448C64.1359 65.632 64.408 65.3568 64.8162 65.3568ZM76.3128 74.9891H70.9387C68.4216 74.9891 66.2448 73.269 65.6325 70.8609H81.6869C81.0067 73.269 78.8298 74.9891 76.3128 74.9891ZM82.5033 69.4849H64.8162C64.408 69.4849 64.1359 69.2097 64.1359 68.7969C64.1359 68.3841 64.408 68.1089 64.8162 68.1089H82.5033C82.9114 68.1089 83.1835 68.3841 83.1835 68.7969C83.1835 69.1409 82.8434 69.4849 82.5033 69.4849Z" fill="#E67285"/>
<path d="M46.9264 45.2683C46.3142 42.0346 43.457 39.6953 40.1917 39.6953H34.8176C31.5523 39.6953 28.6951 42.1034 28.0829 45.2683C27.2665 45.5435 26.6543 46.3003 26.6543 47.2636C26.6543 47.814 26.8584 48.2956 27.1985 48.6396C26.8584 48.9836 26.6543 49.4652 26.6543 50.0156C26.6543 50.9789 27.2665 51.7357 28.0829 52.0109C28.6951 55.2446 31.5523 57.5839 34.8176 57.5839H40.1917C43.457 57.5839 46.3142 55.1758 46.9264 52.0109C47.7427 51.7357 48.355 50.9789 48.355 50.0156C48.355 49.4652 48.1509 48.9836 47.8108 48.6396C48.1509 48.2956 48.355 47.814 48.355 47.2636C48.355 46.3003 47.7427 45.4747 46.9264 45.2683ZM34.8176 41.0026H40.1917C42.7087 41.0026 44.8856 42.7226 45.4978 45.1307H45.2257L45.0897 44.9931C44.7495 44.6491 44.2733 44.4427 43.7972 44.4427H43.389C42.9128 44.4427 42.4366 44.6491 42.0965 44.9931C42.0284 45.0619 41.8924 45.1307 41.7563 45.1307H41.3482C41.2121 45.1307 41.0761 45.0619 41.008 44.9931C40.6679 44.6491 40.1917 44.4427 39.7155 44.4427H39.3074C38.8312 44.4427 38.355 44.6491 38.0148 44.9931C37.9468 45.0619 37.8108 45.1307 37.6747 45.1307H37.2665C37.1305 45.1307 36.9944 45.0619 36.9264 44.9931C36.5863 44.6491 36.1101 44.4427 35.6339 44.4427H35.2257C34.7495 44.4427 34.2733 44.6491 33.9332 44.9931C33.8652 45.0619 33.7291 45.1307 33.5931 45.1307H33.1849C33.0489 45.1307 32.9128 45.0619 32.8448 44.9931C32.5046 44.6491 32.0284 44.4427 31.5523 44.4427H31.1441C30.6679 44.4427 30.1917 44.6491 29.8516 44.9931L29.7155 45.1307H29.4434C30.1237 42.7226 32.3006 41.0026 34.8176 41.0026ZM28.6271 46.5067H30.2597L30.804 45.9563C30.872 45.8875 31.008 45.8187 31.1441 45.8187H31.5523C31.6883 45.8187 31.8244 45.8875 31.8924 45.9563C32.2325 46.3003 32.7087 46.5067 33.1849 46.5067H33.5931C34.0693 46.5067 34.5455 46.3003 34.8856 45.9563C34.9536 45.8875 35.0897 45.8187 35.2257 45.8187H35.6339C35.7699 45.8187 35.906 45.8875 35.974 45.9563C36.3142 46.3003 36.7904 46.5067 37.2665 46.5067H37.6747C38.1509 46.5067 38.6271 46.3003 38.9672 45.9563C39.0352 45.8875 39.1713 45.8187 39.3074 45.8187H39.7155C39.8516 45.8187 39.9876 45.8875 40.0557 45.9563C40.3958 46.3003 40.872 46.5067 41.3482 46.5067H41.7563C42.2325 46.5067 42.7087 46.3003 43.0489 45.9563C43.1169 45.8875 43.2529 45.8187 43.389 45.8187H43.7972C43.9332 45.8187 44.0693 45.8875 44.1373 45.9563L44.6815 46.5067H46.3142C46.7223 46.5067 46.9944 46.7819 46.9944 47.1947C46.9944 47.6076 46.7223 47.8828 46.3142 47.8828H28.6271C28.2189 47.8828 27.9468 47.6076 27.9468 47.1947C27.9468 46.7819 28.287 46.5067 28.6271 46.5067ZM40.1917 56.139H34.8176C32.3006 56.139 30.1237 54.419 29.5114 52.0109H45.5659C44.8176 54.419 42.7087 56.139 40.1917 56.139ZM46.3142 50.6349H28.6271C28.2189 50.6349 27.9468 50.3596 27.9468 49.9468C27.9468 49.534 28.2189 49.2588 28.6271 49.2588H46.3142C46.7223 49.2588 46.9944 49.534 46.9944 49.9468C46.9944 50.3596 46.7223 50.6349 46.3142 50.6349Z" fill="#E67285"/>
<path d="M71.0065 45.2683C70.3942 42.0346 67.5371 39.6953 64.2718 39.6953H58.8976C55.6323 39.6953 52.7752 42.1034 52.1629 45.2683C51.3466 45.5435 50.7344 46.3003 50.7344 47.2636C50.7344 47.814 50.9385 48.2956 51.2786 48.6396C50.9385 48.9836 50.7344 49.4652 50.7344 50.0156C50.7344 50.9789 51.3466 51.7357 52.1629 52.0109C52.7752 55.2446 55.6323 57.5839 58.8976 57.5839H64.2718C67.5371 57.5839 70.3942 55.1758 71.0065 52.0109C71.8228 51.7357 72.4351 50.9789 72.4351 50.0156C72.4351 49.4652 72.231 48.9836 71.8908 48.6396C72.231 48.2956 72.4351 47.814 72.4351 47.2636C72.4351 46.3003 71.8228 45.4747 71.0065 45.2683ZM58.8976 41.0026H64.2718C66.7888 41.0026 68.9657 42.7226 69.5779 45.1307H69.3058L69.1697 44.9931C68.8296 44.6491 68.3534 44.4427 67.8772 44.4427H67.4691C66.9929 44.4427 66.5167 44.6491 66.1766 44.9931C66.1085 45.0619 65.9725 45.1307 65.8364 45.1307H65.4283C65.2922 45.1307 65.1561 45.0619 65.0881 44.9931C64.748 44.6491 64.2718 44.4427 63.7956 44.4427H63.3874C62.9112 44.4427 62.4351 44.6491 62.0949 44.9931C62.0269 45.0619 61.8908 45.1307 61.7548 45.1307H61.3466C61.2106 45.1307 61.0745 45.0619 61.0065 44.9931C60.6663 44.6491 60.1902 44.4427 59.714 44.4427H59.3058C58.8296 44.4427 58.3534 44.6491 58.0133 44.9931C57.9453 45.0619 57.8092 45.1307 57.6732 45.1307H57.265C57.1289 45.1307 56.9929 45.0619 56.9248 44.9931C56.5847 44.6491 56.1085 44.4427 55.6323 44.4427H55.2242C54.748 44.4427 54.2718 44.6491 53.9317 44.9931L53.7956 45.1307H53.5235C54.2038 42.7226 56.3806 41.0026 58.8976 41.0026ZM52.7072 46.5067H54.3398L54.884 45.9563C54.9521 45.8875 55.0881 45.8187 55.2242 45.8187H55.6323C55.7684 45.8187 55.9044 45.8875 55.9725 45.9563C56.3126 46.3003 56.7888 46.5067 57.265 46.5067H57.6732C58.1493 46.5067 58.6255 46.3003 58.9657 45.9563C59.0337 45.8875 59.1698 45.8187 59.3058 45.8187H59.714C59.85 45.8187 59.9861 45.8875 60.0541 45.9563C60.3942 46.3003 60.8704 46.5067 61.3466 46.5067H61.7548C62.231 46.5067 62.7072 46.3003 63.0473 45.9563C63.1153 45.8875 63.2514 45.8187 63.3874 45.8187H63.7956C63.9317 45.8187 64.0677 45.8875 64.1357 45.9563C64.4759 46.3003 64.9521 46.5067 65.4283 46.5067H65.8364C66.3126 46.5067 66.7888 46.3003 67.1289 45.9563C67.197 45.8875 67.333 45.8187 67.4691 45.8187H67.8772C68.0133 45.8187 68.1493 45.8875 68.2174 45.9563L68.7616 46.5067H70.3942C70.8024 46.5067 71.0745 46.7819 71.0745 47.1947C71.0745 47.6076 70.8024 47.8828 70.3942 47.8828H52.7072C52.299 47.8828 52.0269 47.6076 52.0269 47.1947C52.0269 46.7819 52.367 46.5067 52.7072 46.5067ZM64.2718 56.139H58.8976C56.3806 56.139 54.2038 54.419 53.5915 52.0109H69.6459C68.9657 54.419 66.7888 56.139 64.2718 56.139ZM70.3942 50.6349H52.7072C52.299 50.6349 52.0269 50.3596 52.0269 49.9468C52.0269 49.534 52.299 49.2588 52.7072 49.2588H70.3942C70.8024 49.2588 71.0745 49.534 71.0745 49.9468C71.0745 50.3596 70.8024 50.6349 70.3942 50.6349Z" fill="#E67285"/>
</svg>
