<svg width="100" height="100" viewBox="0 0 100 100" fill="none" xmlns="http://www.w3.org/2000/svg">
<circle cx="50" cy="50" r="50" fill="white"/>
<path d="M77.5609 22.4392V77.5629H22.4373V22.4392H77.5609ZM77.5609 20.9102H22.4373C21.5963 20.9102 20.9082 21.5982 20.9082 22.4392V77.5629C20.9082 78.4039 21.5963 79.092 22.4373 79.092H77.5609C78.4019 79.092 79.09 78.4039 79.09 77.5629V22.4392C79.09 21.5982 78.4019 20.9102 77.5609 20.9102Z" fill="#F4976E"/>
<path d="M50.8014 37.808C50.8014 37.1964 50.572 36.6612 50.1897 36.2789C50.572 35.8966 50.8014 35.3615 50.8014 34.7498C50.8014 33.6795 50.1133 32.8385 49.1958 32.5327C48.4313 28.9393 45.2966 26.3398 41.5504 26.3398H35.5105C31.7642 26.3398 28.6296 29.0157 27.9415 32.5327C27.024 32.8385 26.3359 33.6795 26.3359 34.7498C26.3359 35.3615 26.5653 35.8966 26.9476 36.2789C26.5653 36.6612 26.3359 37.1964 26.3359 37.808C26.3359 38.8784 27.024 39.7194 27.9415 40.0252C28.6296 43.6185 31.8407 46.218 35.5105 46.218H41.5504C45.2202 46.218 48.4313 43.5421 49.1194 40.0252C50.1133 39.7194 50.8014 38.8019 50.8014 37.808ZM35.5105 27.8689H41.5504C44.3792 27.8689 46.8257 29.7803 47.5138 32.4562H47.208L47.0551 32.3033C46.6728 31.921 46.1376 31.6917 45.6025 31.6917H45.1437C44.6085 31.6917 44.0734 31.921 43.6911 32.3033C43.6146 32.3797 43.4617 32.4562 43.3088 32.4562H42.8501C42.6972 32.4562 42.5443 32.3797 42.4678 32.3033C42.0856 31.921 41.5504 31.6917 41.0152 31.6917H40.5565C40.0213 31.6917 39.4861 31.921 39.1038 32.3033C39.0274 32.3797 38.8745 32.4562 38.7216 32.4562H38.2628C38.1099 32.4562 37.957 32.3797 37.8806 32.3033C37.4983 31.921 36.9631 31.6917 36.4279 31.6917H35.9692C35.434 31.6917 34.8988 31.921 34.5166 32.3033C34.4401 32.3797 34.2872 32.4562 34.1343 32.4562H33.6756C33.5227 32.4562 33.3697 32.3797 33.2933 32.3033C32.911 31.921 32.3758 31.6917 31.8407 31.6917H31.3819C30.8467 31.6917 30.3116 31.921 29.9293 32.3033L29.7764 32.4562H29.4706C30.2351 29.7803 32.6817 27.8689 35.5105 27.8689ZM28.6296 33.9853H30.4645L31.0761 33.3737C31.1526 33.2972 31.3055 33.2207 31.4584 33.2207H31.9171C32.07 33.2207 32.2229 33.2972 32.2994 33.3737C32.6817 33.7559 33.2168 33.9853 33.752 33.9853H34.2107C34.7459 33.9853 35.2811 33.7559 35.6634 33.3737C35.7398 33.2972 35.8927 33.2207 36.0456 33.2207H36.5044C36.6573 33.2207 36.8102 33.2972 36.8866 33.3737C37.2689 33.7559 37.8041 33.9853 38.3393 33.9853H38.798C39.3332 33.9853 39.8684 33.7559 40.2506 33.3737C40.3271 33.2972 40.48 33.2207 40.6329 33.2207H41.0916C41.2446 33.2207 41.3975 33.2972 41.4739 33.3737C41.8562 33.7559 42.3914 33.9853 42.9265 33.9853H43.3853C43.9205 33.9853 44.4556 33.7559 44.8379 33.3737C44.9144 33.2972 45.0673 33.2207 45.2202 33.2207H45.6789C45.8318 33.2207 45.9847 33.2972 46.0612 33.3737L46.6728 33.9853H48.5077C48.9664 33.9853 49.2723 34.2911 49.2723 34.7498C49.2723 35.2086 48.9664 35.5144 48.5077 35.5144H28.6296C28.1708 35.5144 27.865 35.2086 27.865 34.7498C27.865 34.2911 28.1708 33.9853 28.6296 33.9853ZM28.6296 37.0435H48.5077C48.9664 37.0435 49.2723 37.3493 49.2723 37.808C49.2723 38.2667 48.9664 38.5726 48.5077 38.5726H28.6296C28.1708 38.5726 27.865 38.2667 27.865 37.808C27.865 37.3493 28.1708 37.0435 28.6296 37.0435ZM41.5504 44.6889H35.5105C32.6817 44.6889 30.2351 42.7775 29.547 40.1016H47.5903C46.8257 42.7775 44.3792 44.6889 41.5504 44.6889Z" fill="#F4976E"/>
<path d="M72.0569 60.0561C71.3688 56.4627 68.1577 53.8633 64.4879 53.8633H58.448C54.7782 53.8633 51.5671 56.5392 50.879 60.0561C49.9615 60.3619 49.2734 61.2029 49.2734 62.2733C49.2734 62.8849 49.5028 63.4201 49.8851 63.8024C49.5028 64.1846 49.2734 64.7198 49.2734 65.3314C49.2734 66.4018 49.9615 67.2428 50.879 67.5486C51.5671 71.142 54.7782 73.7414 58.448 73.7414H64.4879C68.1577 73.7414 71.3688 71.0655 72.0569 67.5486C72.9743 67.2428 73.6624 66.4018 73.6624 65.3314C73.6624 64.7198 73.433 64.1846 73.0508 63.8024C73.433 63.4201 73.6624 62.8849 73.6624 62.2733C73.7389 61.2029 73.0508 60.3619 72.0569 60.0561ZM58.448 55.3924H64.4879C67.3167 55.3924 69.7632 57.3037 70.4513 59.9796H70.1455L69.9926 59.8267C69.6103 59.4445 69.0751 59.2151 68.54 59.2151H68.0812C67.546 59.2151 67.0109 59.4445 66.6286 59.8267C66.5521 59.9032 66.3992 59.9796 66.2463 59.9796H65.7876C65.6347 59.9796 65.4818 59.9032 65.4053 59.8267C65.0231 59.4445 64.4879 59.2151 63.9527 59.2151H63.494C62.9588 59.2151 62.4236 59.4445 62.0413 59.8267C61.9649 59.9032 61.812 59.9796 61.6591 59.9796H61.2003C61.0474 59.9796 60.8945 59.9032 60.8181 59.8267C60.4358 59.4445 59.9006 59.2151 59.3654 59.2151H58.9067C58.3715 59.2151 57.8363 59.4445 57.4541 59.8267C57.3776 59.9032 57.2247 59.9796 57.0718 59.9796H56.6131C56.4602 59.9796 56.3072 59.9032 56.2308 59.8267C55.8485 59.4445 55.3133 59.2151 54.7782 59.2151H54.3194C53.7843 59.2151 53.2491 59.4445 52.8668 59.8267L52.7139 59.9796H52.4081C53.1726 57.3037 55.6192 55.3924 58.448 55.3924ZM51.5671 61.5087H53.402L54.0136 60.8971C54.0901 60.8206 54.243 60.7442 54.3959 60.7442H54.8546C55.0075 60.7442 55.1604 60.8206 55.2369 60.8971C55.6192 61.2794 56.1543 61.5087 56.6895 61.5087H57.1482C57.6834 61.5087 58.2186 61.2794 58.6009 60.8971C58.6773 60.8206 58.8302 60.7442 58.9832 60.7442H59.4419C59.5948 60.7442 59.7477 60.8206 59.8242 60.8971C60.2064 61.2794 60.7416 61.5087 61.2768 61.5087H61.7355C62.2707 61.5087 62.8059 61.2794 63.1881 60.8971C63.2646 60.8206 63.4175 60.7442 63.5704 60.7442H64.0291C64.1821 60.7442 64.335 60.8206 64.4114 60.8971C64.7937 61.2794 65.3289 61.5087 65.864 61.5087H66.3228C66.858 61.5087 67.3931 61.2794 67.7754 60.8971C67.8519 60.8206 68.0048 60.7442 68.1577 60.7442H68.6164C68.7693 60.7442 68.9222 60.8206 68.9987 60.8971L69.6103 61.5087H71.4452C71.9039 61.5087 72.2098 61.8145 72.2098 62.2733C72.2098 62.732 71.9039 63.0378 71.4452 63.0378H51.5671C51.1083 63.0378 50.8025 62.732 50.8025 62.2733C50.8025 61.8145 51.1083 61.5087 51.5671 61.5087ZM64.4879 72.2123H58.448C55.6192 72.2123 53.1726 70.301 52.4845 67.6251H70.5278C69.7632 70.301 67.3167 72.2123 64.4879 72.2123ZM71.4452 66.096H51.5671C51.1083 66.096 50.8025 65.7902 50.8025 65.3314C50.8025 64.8727 51.1083 64.5669 51.5671 64.5669H71.4452C71.9039 64.5669 72.2098 64.8727 72.2098 65.3314C72.2098 65.7902 71.8275 66.096 71.4452 66.096Z" fill="#F4976E"/>
<path d="M39.9451 50.879C39.6393 49.9615 38.7983 49.2734 37.7279 49.2734C37.1163 49.2734 36.5811 49.5028 36.1988 49.8851C35.8166 49.5028 35.2814 49.2734 34.6698 49.2734C33.5994 49.2734 32.7584 49.9615 32.4526 50.879C28.8592 51.5671 26.2598 54.7782 26.2598 58.448V64.4879C26.2598 68.1577 28.9357 71.3688 32.4526 72.0569C32.7584 72.9743 33.5994 73.6624 34.6698 73.6624C35.2814 73.6624 35.8166 73.433 36.1988 73.0508C36.5811 73.433 37.1163 73.6624 37.7279 73.6624C38.7983 73.6624 39.6393 72.9743 39.9451 72.0569C43.5385 71.3688 46.1379 68.1577 46.1379 64.4879V58.448C46.2144 54.7782 43.5385 51.5671 39.9451 50.879ZM27.8653 64.4879V58.448C27.8653 55.6192 29.7767 53.1726 32.4526 52.4845V52.7903L32.2997 52.9433C31.9174 53.3255 31.688 53.8607 31.688 54.3959V54.8546C31.688 55.3898 31.9174 55.925 32.2997 56.3072C32.3761 56.3837 32.4526 56.5366 32.4526 56.6895V57.1482C32.4526 57.3012 32.3761 57.4541 32.2997 57.5305C31.9174 57.9128 31.688 58.448 31.688 58.9832V59.4419C31.688 59.9771 31.9174 60.5122 32.2997 60.8945C32.3761 60.971 32.4526 61.1239 32.4526 61.2768V61.7355C32.4526 61.8884 32.3761 62.0413 32.2997 62.1178C31.9174 62.5001 31.688 63.0352 31.688 63.5704V64.0291C31.688 64.5643 31.9174 65.0995 32.2997 65.4818C32.3761 65.5582 32.4526 65.7111 32.4526 65.864V66.3228C32.4526 66.4757 32.3761 66.6286 32.2997 66.705C31.9174 67.0873 31.688 67.6225 31.688 68.1577V68.6164C31.688 69.1516 31.9174 69.6868 32.2997 70.069L32.4526 70.222V70.5278C29.7767 69.7632 27.8653 67.3167 27.8653 64.4879ZM34.7462 72.2098C34.2875 72.2098 33.9817 71.9039 33.9817 71.4452V69.6103L33.37 68.9987C33.2936 68.9222 33.2171 68.7693 33.2171 68.6164V68.1577C33.2171 68.0048 33.2936 67.8519 33.37 67.7754C33.7523 67.3931 33.9817 66.858 33.9817 66.3228V65.864C33.9817 65.3289 33.7523 64.7937 33.37 64.4114C33.2936 64.335 33.2171 64.1821 33.2171 64.0291V63.5704C33.2171 63.4175 33.2936 63.2646 33.37 63.1881C33.7523 62.8059 33.9817 62.2707 33.9817 61.7355V61.2768C33.9817 60.7416 33.7523 60.2064 33.37 59.8242C33.2936 59.7477 33.2171 59.5948 33.2171 59.4419V58.9832C33.2171 58.8302 33.2936 58.6773 33.37 58.6009C33.7523 58.2186 33.9817 57.6834 33.9817 57.1482V56.6895C33.9817 56.1543 33.7523 55.6192 33.37 55.2369C33.2936 55.1604 33.2171 55.0075 33.2171 54.8546V54.3959C33.2171 54.243 33.2936 54.0901 33.37 54.0136L33.9817 53.402V51.5671C33.9817 51.1083 34.2875 50.8025 34.7462 50.8025C35.2049 50.8025 35.5108 51.1083 35.5108 51.5671V71.4452C35.5108 71.8275 35.1285 72.2098 34.7462 72.2098ZM38.5689 71.4452C38.5689 71.9039 38.2631 72.2098 37.8044 72.2098C37.3457 72.2098 37.0398 71.9039 37.0398 71.4452V51.5671C37.0398 51.1083 37.3457 50.8025 37.8044 50.8025C38.2631 50.8025 38.5689 51.1083 38.5689 51.5671V71.4452ZM44.6853 64.4879C44.6853 67.3167 42.7739 69.7632 40.098 70.4513V52.4845C42.7739 53.1726 44.6853 55.6192 44.6853 58.448V64.4879Z" fill="#F4976E"/>
<path d="M67.4685 27.9454C67.1627 27.0279 66.3217 26.3398 65.2514 26.3398C64.6397 26.3398 64.1046 26.5692 63.7223 26.9515C63.34 26.5692 62.8048 26.3398 62.1932 26.3398C61.1228 26.3398 60.2818 27.0279 59.976 27.9454C56.3827 28.6335 53.7832 31.8446 53.7832 35.5144V41.5543C53.7832 45.2241 56.4591 48.4352 59.976 49.1233C60.2818 50.0407 61.1228 50.7288 62.1932 50.7288C62.8048 50.7288 63.34 50.4994 63.7223 50.1172C64.1046 50.4994 64.6397 50.7288 65.2514 50.7288C66.3217 50.7288 67.1627 50.0407 67.4685 49.1233C71.0619 48.4352 73.6614 45.2241 73.6614 41.5543V35.5144C73.7378 31.8446 71.0619 28.6335 67.4685 27.9454ZM55.3887 41.5543V35.5144C55.3887 32.6856 57.3001 30.239 59.976 29.5509V47.5942C57.3001 46.8296 55.3887 44.3831 55.3887 41.5543ZM62.2696 49.2762C61.8109 49.2762 61.5051 48.9704 61.5051 48.5116V28.6335C61.5051 28.1748 61.8109 27.8689 62.2696 27.8689C62.7284 27.8689 63.0342 28.1748 63.0342 28.6335V48.5116C63.0342 48.8939 62.6519 49.2762 62.2696 49.2762ZM66.0924 46.6767V48.5116C66.0924 48.9704 65.7865 49.2762 65.3278 49.2762C64.8691 49.2762 64.5633 48.9704 64.5633 48.5116V28.6335C64.5633 28.1748 64.8691 27.8689 65.3278 27.8689C65.7865 27.8689 66.0924 28.1748 66.0924 28.6335V30.4684L66.704 31.08C66.7805 31.1565 66.8569 31.3094 66.8569 31.4623V31.921C66.8569 32.0739 66.7805 32.2268 66.704 32.3033C66.3217 32.6856 66.0924 33.2207 66.0924 33.7559V34.2146C66.0924 34.7498 66.3217 35.285 66.704 35.6673C66.7805 35.7437 66.8569 35.8966 66.8569 36.0496V36.5083C66.8569 36.6612 66.7805 36.8141 66.704 36.8906C66.3217 37.2728 66.0924 37.808 66.0924 38.3432V38.8019C66.0924 39.3371 66.3217 39.8723 66.704 40.2545C66.7805 40.331 66.8569 40.4839 66.8569 40.6368V41.0955C66.8569 41.2485 66.7805 41.4014 66.704 41.4778C66.3217 41.8601 66.0924 42.3953 66.0924 42.9305V43.3892C66.0924 43.9244 66.3217 44.4595 66.704 44.8418C66.7805 44.9183 66.8569 45.0712 66.8569 45.2241V45.6828C66.8569 45.8357 66.7805 45.9886 66.704 46.0651L66.0924 46.6767ZM72.2087 41.5543C72.2087 44.3831 70.2974 46.8296 67.6215 47.5177V47.2119L67.7744 47.059C68.1566 46.6767 68.386 46.1415 68.386 45.6064V45.1476C68.386 44.6125 68.1566 44.0773 67.7744 43.695C67.6979 43.6185 67.6215 43.4656 67.6215 43.3127V42.854C67.6215 42.7011 67.6979 42.5482 67.7744 42.4717C68.1566 42.0895 68.386 41.5543 68.386 41.0191V40.5604C68.386 40.0252 68.1566 39.49 67.7744 39.1077C67.6979 39.0313 67.6215 38.8784 67.6215 38.7255V38.2667C67.6215 38.1138 67.6979 37.9609 67.7744 37.8845C68.1566 37.5022 68.386 36.967 68.386 36.4318V35.9731C68.386 35.4379 68.1566 34.9027 67.7744 34.5205C67.6979 34.444 67.6215 34.2911 67.6215 34.1382V33.6795C67.6215 33.5266 67.6979 33.3737 67.7744 33.2972C68.1566 32.9149 68.386 32.3797 68.386 31.8446V31.3858C68.386 30.8507 68.1566 30.3155 67.7744 29.9332L67.6215 29.7803V29.4745C70.2974 30.1626 72.2087 32.6091 72.2087 35.4379V41.5543Z" fill="#F4976E"/>
</svg>
