<svg width="100" height="100" viewBox="0 0 100 100" fill="none" xmlns="http://www.w3.org/2000/svg">
<circle cx="50" cy="50" r="50" fill="white"/>
<path d="M70.4899 38.2798C71.1533 33.1778 68.927 28.5243 64.5415 25.8366C64.139 25.586 63.7199 25.3469 63.2954 25.1152C56.5494 21.4334 48.496 20.7073 41.2003 23.1224C33.8056 25.5698 27.9289 30.834 24.6521 37.9442C18.8335 50.5815 23.3357 65.6933 35.1244 73.095C35.622 73.4079 36.1262 73.7037 36.6322 73.9799C36.9971 74.179 37.3628 74.367 37.7264 74.5448C42.3491 76.8098 47.6579 76.1746 51.5798 72.8872C55.7018 69.4315 57.3267 64.0311 55.8199 58.7923C55.8199 58.7923 55.8199 58.7923 55.8195 58.7908C55.1628 56.5164 55.278 54.542 56.1612 52.9236C57.0418 51.3102 58.6385 50.1482 60.9081 49.4696C66.1231 47.9072 69.7945 43.6199 70.4899 38.2798ZM54.1253 51.8124C52.955 53.9567 52.7705 56.5925 53.5917 59.4354C54.8403 63.7785 53.498 68.252 50.0899 71.1089C46.8317 73.84 42.5918 74.3463 38.745 72.461C37.9471 72.0719 37.1417 71.6233 36.3586 71.1314C25.5533 64.3464 21.4268 50.4964 26.7594 38.9151C29.7637 32.3941 35.1513 27.5674 41.929 25.3238C48.6169 23.1099 55.9999 23.7758 62.1842 27.1511C62.5689 27.3611 62.9494 27.5765 63.3226 27.8099C66.9128 30.0093 68.7323 33.8125 68.1891 37.9802C67.615 42.4007 64.5696 45.9523 60.2435 47.2477C57.4083 48.095 55.2929 49.6731 54.1253 51.8124Z" fill="#9FCE9E"/>
<path d="M61.3906 28.6107C59.1638 27.3953 56.3625 28.2185 55.1471 30.4453C53.9318 32.6721 54.7555 35.4724 56.9823 36.6877C59.209 37.9031 62.0088 37.0804 63.2242 34.8536C64.4395 32.6268 63.6174 29.826 61.3906 28.6107ZM58.0934 34.6518C56.989 34.049 56.5803 32.6609 57.183 31.5564C57.7858 30.452 59.175 30.0438 60.2794 30.6466C61.3839 31.2494 61.7911 32.638 61.1883 33.7424C60.5855 34.8469 59.1979 35.2546 58.0934 34.6518Z" fill="#9FCE9E"/>
<path d="M42.9453 62.4037C40.7185 61.1883 37.9177 62.0105 36.7024 64.2373C35.487 66.464 36.3102 69.2654 38.5369 70.4807C40.7637 71.6961 43.5641 70.8724 44.7794 68.6456C45.9948 66.4188 45.1721 63.619 42.9453 62.4037ZM39.6481 68.4448C38.5437 67.842 38.1355 66.4529 38.7383 65.3484C39.3411 64.244 40.7297 63.8368 41.8341 64.4396C42.9386 65.0424 43.3463 66.43 42.7435 67.5344C42.1407 68.6389 40.7526 69.0476 39.6481 68.4448Z" fill="#9FCE9E"/>
<path d="M37.105 42.5255C38.3204 40.2987 37.4982 37.4979 35.2714 36.2826C33.0447 35.0672 30.2433 35.8904 29.028 38.1172C27.8126 40.3439 28.6363 43.1443 30.8631 44.3596C33.0899 45.575 35.8897 44.7523 37.105 42.5255ZM31.9743 42.3237C30.8698 41.7209 30.4611 40.3328 31.0639 39.2283C31.6667 38.1239 33.0558 37.7157 34.1603 38.3185C35.2647 38.9213 35.6719 40.3099 35.0691 41.4143C34.4663 42.5188 33.0787 42.9265 31.9743 42.3237Z" fill="#9FCE9E"/>
<path d="M30.1958 50.5556C27.7622 51.2724 26.364 53.8342 27.0788 56.2667C27.4246 57.4463 28.2106 58.4198 29.2892 59.0085C30.3678 59.5972 31.6113 59.7301 32.7899 59.3838C33.9685 59.0374 34.9424 58.2529 35.5311 57.1744C36.1198 56.0958 36.2543 54.8518 35.9069 53.6727C35.1917 51.2386 32.6299 49.8404 30.1958 50.5556ZM32.1361 57.1587C30.9651 57.5027 29.648 56.7838 29.3039 55.6129C28.9494 54.4066 29.6428 53.1362 30.8497 52.7807C32.0564 52.4278 33.3259 53.1206 33.6818 54.3265C33.8539 54.9119 33.7871 55.5284 33.4952 56.0632C33.2033 56.598 32.7216 56.9866 32.1361 57.1587Z" fill="#9FCE9E"/>
<path d="M43.2388 26.6605C40.8063 27.3752 39.4081 29.937 40.1218 32.3716C40.4794 33.5886 41.2994 34.5471 42.3333 35.1113C43.3671 35.6756 44.6158 35.8462 45.8329 35.4886C47.0125 35.1428 47.986 34.3568 48.5746 33.2782C49.1633 32.1996 49.2972 30.9567 48.9499 29.7775C48.2583 27.4183 45.5971 25.9658 43.2388 26.6605ZM45.1791 33.2635C43.9712 33.6184 42.7018 32.9256 42.3469 31.7177C41.9929 30.5105 42.6863 29.24 43.8926 28.8855C44.4781 28.7135 45.0945 28.7803 45.6293 29.0722C46.1642 29.3641 46.5528 29.8458 46.7248 30.4313C46.8969 31.0168 46.8306 31.6322 46.5387 32.167C46.2468 32.7018 45.7645 33.0915 45.1791 33.2635Z" fill="#9FCE9E"/>
<path d="M75.5923 54.2464L77.2283 48.5875C78.3044 48.189 79.2542 47.4354 79.8456 46.3518C80.9481 44.3318 80.5733 38.1535 80.4868 36.9361C80.4321 36.1475 79.4647 35.6221 78.773 36.0007C77.7018 36.5876 72.3044 39.6142 71.2019 41.6342C70.6104 42.718 70.4902 43.9246 70.7372 45.0453L66.8631 49.4821C66.8307 49.5194 66.8218 49.5689 66.7947 49.6093C66.76 49.6604 66.7114 49.6998 66.685 49.7565L55.358 74.1011C54.6497 75.6589 55.2724 77.5225 56.7755 78.3428C58.2795 79.1637 60.1838 78.6793 61.1167 77.2325L75.4579 54.5446C75.4913 54.4917 75.4982 54.4295 75.5224 54.3727C75.5417 54.3281 75.5785 54.2939 75.5923 54.2464ZM59.1622 75.9839C58.8891 76.4063 58.329 76.5484 57.8866 76.3069C57.4443 76.0655 57.2617 75.5182 57.4654 75.0694L68.2667 51.8558L72.8366 54.35L59.1622 75.9839ZM69.5608 49.9198L71.8749 47.2698C72.2384 47.6756 72.6594 48.0396 73.1642 48.3151C73.6692 48.5907 74.2036 48.748 74.7418 48.8342L73.7649 52.2143L69.5608 49.9198ZM74.2753 46.2791C73.0148 45.5912 72.5498 44.0059 73.2378 42.7454C73.693 41.9113 76.09 40.2688 78.267 38.9656C78.3496 41.5021 78.2654 44.4056 77.8097 45.2406C77.1217 46.5011 75.5359 46.9671 74.2753 46.2791Z" fill="#9FCE9E"/>
</svg>
