<svg width="100" height="100" viewBox="0 0 100 100" fill="none" xmlns="http://www.w3.org/2000/svg">
<circle cx="50" cy="50" r="50" fill="white"/>
<path d="M73.911 49.8651V42.557H61.944C62.218 42.2829 62.4921 42.0089 62.6748 41.6435H64.3191C66.6029 41.6435 68.4299 39.8165 68.4299 37.5327C68.4299 35.2489 66.6029 33.4219 64.3191 33.4219H63.8623H62.9488H51.0732V37.9894C51.0732 39.8165 51.804 41.3694 52.9915 42.557H42.8516V49.8651H44.6786V48.0381H45.9575L47.7845 51.6921H49.2461V74.5299C49.2461 75.5348 48.424 76.3569 47.4191 76.3569C46.4143 76.3569 45.5921 75.5348 45.5921 74.5299H43.7651C43.7651 76.5396 45.4094 78.184 47.4191 78.184C49.4288 78.184 51.0732 76.5396 51.0732 74.5299V61.7407H65.6894V74.5299C65.6894 76.5396 67.3337 78.184 69.3434 78.184C71.3531 78.184 72.9974 76.5396 72.9974 74.5299H71.1704C71.1704 75.5348 70.3483 76.3569 69.3434 76.3569C68.3385 76.3569 67.5164 75.5348 67.5164 74.5299V51.6921H68.978L70.805 48.0381H72.0839V49.8651H73.911ZM64.3191 35.2489C65.598 35.2489 66.6029 36.2538 66.6029 37.5327C66.6029 38.8116 65.598 39.8165 64.3191 39.8165H63.5883C63.771 39.2684 63.8623 38.6289 63.8623 37.9894V35.2489H64.3191ZM52.9002 37.9894V35.2489H62.0353V37.9894C62.0353 40.5473 60.0256 42.557 57.4678 42.557C54.9099 42.557 52.9002 40.5473 52.9002 37.9894ZM51.0732 59.9137V58.0867H65.6894V59.9137H51.0732ZM65.6894 56.2597H51.0732V51.6921H65.6894V56.2597ZM67.8818 49.8651H48.8807L47.9672 48.0381H68.7953L67.8818 49.8651ZM44.6786 46.211V44.384H72.0839V46.211H44.6786Z" fill="#8A8CDC"/>
<path d="M39.1977 75.4434C39.1977 75.9915 38.8323 76.3569 38.2842 76.3569C37.7361 76.3569 37.3707 75.9915 37.3707 75.4434V60.8272H38.2842C39.2891 60.8272 40.1112 60.0051 40.1112 59.0002V57.1732C40.1112 56.1683 39.2891 55.3462 38.2842 55.3462H23.668L22.7545 36.1624C22.7545 34.6094 21.5669 33.4219 20.014 33.4219C18.461 33.4219 17.2734 34.6094 17.2734 36.1624V37.0759H19.1005V36.1624C19.1005 35.6143 19.4659 35.2489 20.014 35.2489C20.5621 35.2489 20.9275 35.6143 20.9275 36.1624L21.841 56.2597V60.8272H23.668V75.4434C23.668 75.9915 23.3026 76.3569 22.7545 76.3569C22.2064 76.3569 21.841 75.9915 21.841 75.4434V74.5299H20.014V75.4434C20.014 76.9964 21.2015 78.184 22.7545 78.184C24.3075 78.184 25.495 76.9964 25.495 75.4434V60.8272H35.5437V75.4434C35.5437 76.9964 36.7312 78.184 38.2842 78.184C39.8372 78.184 41.0247 76.9964 41.0247 75.4434V74.5299H39.1977V75.4434ZM23.668 57.1732H38.2842V59.0002H23.668V57.1732Z" fill="#8A8CDC"/>
<path d="M53.8139 26.6619C53.2658 27.21 52.9004 28.0322 52.9004 28.8544C52.9004 29.6765 53.2658 30.4987 53.8139 31.0468L55.0015 32.2343L56.2804 30.9554L55.0928 29.7679C54.8188 29.4938 54.7274 29.2198 54.7274 28.8544C54.7274 28.4889 54.8188 28.2149 55.0928 27.9408L55.6409 27.3927C56.189 26.8446 56.5544 26.0225 56.5544 25.2003C56.5544 24.3781 56.189 23.556 55.6409 23.0079L54.4534 21.8203L53.1744 23.0992L54.362 24.2868C54.6361 24.5608 54.7274 24.8349 54.7274 25.2003C54.7274 25.5657 54.6361 25.8398 54.362 26.1138L53.8139 26.6619Z" fill="#8A8CDC"/>
<path d="M59.2944 26.6619C58.7463 27.21 58.3809 28.0322 58.3809 28.8544C58.3809 29.6765 58.7463 30.4987 59.2944 31.0468L60.4819 32.2343L61.7609 30.9554L60.5733 29.7679C60.2992 29.4938 60.2079 29.2198 60.2079 28.8544C60.2079 28.4889 60.2992 28.2149 60.5733 27.9408L61.1214 27.3927C61.6695 26.8446 62.0349 26.0225 62.0349 25.2003C62.0349 24.3781 61.6695 23.556 61.1214 23.0079L59.9338 21.8203L58.6549 23.0992L59.8425 24.2868C60.1165 24.5608 60.2079 24.8349 60.2079 25.2003C60.2079 25.5657 60.1165 25.8398 59.8425 26.1138L59.2944 26.6619Z" fill="#8A8CDC"/>
</svg>
