<svg width="100" height="100" viewBox="0 0 100 100" fill="none" xmlns="http://www.w3.org/2000/svg">
<circle cx="50" cy="50" r="50" fill="white"/>
<path d="M77.2521 60.6595C76.4778 56.5948 72.897 53.6914 68.7354 53.6914H61.9609C57.7994 53.6914 54.2185 56.6916 53.4443 60.6595C52.3797 60.9499 51.6055 61.9177 51.6055 63.079C51.6055 63.7565 51.8958 64.3372 52.2829 64.8211C51.8958 65.305 51.6055 65.8856 51.6055 66.5631C51.6055 67.7244 52.3797 68.6922 53.4443 68.9826C54.2185 73.0473 57.7994 75.9507 61.9609 75.9507H68.7354C72.897 75.9507 76.4778 72.9505 77.2521 68.9826C78.3166 68.6922 79.0909 67.7244 79.0909 66.5631C79.0909 65.8856 78.8005 65.305 78.4134 64.8211C78.8005 64.3372 79.0909 63.7565 79.0909 63.079C79.0909 62.0144 78.3166 60.9499 77.2521 60.6595ZM61.9609 55.4334H68.7354C71.9292 55.4334 74.639 57.5626 75.51 60.5628H75.2197L75.0261 60.3692C74.5422 59.8853 73.9615 59.6917 73.3809 59.6917H72.897C72.3163 59.6917 71.7356 59.8853 71.2517 60.3692C71.1549 60.466 70.9614 60.5628 70.8646 60.5628H70.3807C70.1871 60.5628 70.0904 60.466 69.9936 60.3692C69.5097 59.8853 68.929 59.6917 68.3483 59.6917H67.8644C67.2838 59.6917 66.7031 59.8853 66.2192 60.3692C66.1224 60.466 65.9288 60.5628 65.8321 60.5628H65.3482C65.1546 60.5628 65.0578 60.466 64.961 60.3692C64.4772 59.8853 63.8965 59.6917 63.3158 59.6917H62.8319C62.2512 59.6917 61.6705 59.8853 61.1866 60.3692C61.0899 60.466 60.8963 60.5628 60.7995 60.5628H60.3156C60.1221 60.5628 60.0253 60.466 59.9285 60.3692C59.4446 59.8853 58.8639 59.6917 58.2833 59.6917H57.7994C57.2187 59.6917 56.638 59.8853 56.1541 60.3692L55.5734 60.5628H55.2831C56.0573 57.5626 58.7672 55.4334 61.9609 55.4334ZM54.2185 62.3048H56.2509L56.9283 61.6273C57.0251 61.5305 57.2187 61.4338 57.3155 61.4338H57.7994C57.9929 61.4338 58.0897 61.5305 58.1865 61.6273C58.6704 62.1112 59.2511 62.3048 59.8317 62.3048H60.4124C60.9931 62.3048 61.5738 62.1112 62.0577 61.6273C62.1544 61.5305 62.348 61.4338 62.4448 61.4338H62.9287C63.1222 61.4338 63.219 61.5305 63.3158 61.6273C63.7997 62.1112 64.3804 62.3048 64.961 62.3048H65.4449C66.0256 62.3048 66.6063 62.1112 67.0902 61.6273C67.187 61.5305 67.3805 61.4338 67.4773 61.4338H68.1548C68.3483 61.4338 68.4451 61.5305 68.5419 61.6273C69.0258 62.1112 69.6065 62.3048 70.1871 62.3048H70.671C71.2517 62.3048 71.8324 62.1112 72.3163 61.6273C72.4131 61.5305 72.6066 61.4338 72.7034 61.4338H73.1873C73.3809 61.4338 73.4776 61.5305 73.5744 61.6273L74.2519 62.3048H76.2843C76.7682 62.3048 77.1553 62.6919 77.1553 63.1758C77.1553 63.6597 76.7682 64.0468 76.2843 64.0468H54.2185C53.7346 64.0468 53.3475 63.6597 53.3475 63.1758C53.3475 62.6919 53.7346 62.3048 54.2185 62.3048ZM68.7354 74.3055H61.9609C58.7672 74.3055 56.0573 72.1763 55.1863 69.1761H75.4132C74.639 72.1763 71.9292 74.3055 68.7354 74.3055ZM76.4778 67.4341H54.2185C53.7346 67.4341 53.3475 67.047 53.3475 66.5631C53.3475 66.0792 53.7346 65.6921 54.2185 65.6921H76.5746C77.0585 65.6921 77.4456 66.0792 77.4456 66.5631C77.3488 67.047 76.9617 67.4341 76.4778 67.4341Z" fill="#57B6BB"/>
<path d="M52.477 69.4047H48.993V44.4443H60.3162V52.8554C60.6065 52.8554 60.8968 52.8554 61.1872 52.8554C61.5743 52.8554 61.8646 52.8554 62.155 52.9522V44.5411H63.9938C64.4777 44.5411 64.9616 44.0572 64.9616 43.5733V34.9599C64.9616 34.476 64.4777 33.9921 63.9938 33.9921H53.2513C54.1223 33.0243 54.703 31.6694 54.703 30.2177C54.703 27.1208 52.1867 24.6045 49.0897 24.6045C47.2509 24.6045 45.6057 25.4755 44.6379 26.8304C43.5733 24.8948 41.5409 23.6367 39.2182 23.6367C35.8309 23.6367 33.1211 26.3465 33.1211 29.7338C33.1211 31.3791 33.7986 32.8308 34.8631 33.9921H24.6045C24.1206 33.9921 23.6367 34.476 23.6367 34.9599V43.3798C23.6367 43.8637 24.1206 44.3476 24.6045 44.3476H26.4433V70.2757C26.4433 70.7596 26.9272 71.2435 27.4111 71.2435H53.1545C52.8641 70.6628 52.6706 70.0822 52.477 69.4047ZM63.1228 35.9277V42.5087H48.993V35.9277H63.1228ZM45.3153 30.3145C45.3153 28.1854 46.9606 26.5401 49.0897 26.5401C51.2189 26.5401 52.8641 28.1854 52.8641 30.3145C52.8641 32.4437 51.2189 34.0889 49.0897 34.0889H45.3153V30.3145ZM39.1214 25.5723C41.4442 25.5723 43.3797 27.4111 43.3797 29.8306V34.0889H39.1214C36.7987 34.0889 34.8631 32.2501 34.8631 29.8306C34.9599 27.5079 36.7987 25.5723 39.1214 25.5723ZM39.6053 69.4047H28.3789V44.4443H39.7021V69.4047H39.6053ZM39.6053 42.5087H25.4755V35.9277H39.6053V42.5087ZM47.1541 69.4047H41.5409V44.4443H47.1541V69.4047ZM47.1541 42.5087H41.5409V35.9277H47.1541V42.5087Z" fill="#57B6BB"/>
</svg>
