<svg width="91.186279" height="79.569336" viewBox="0 0 91.1863 79.5693" fill="none" xmlns="http://www.w3.org/2000/svg" xmlns:xlink="http://www.w3.org/1999/xlink">
	<desc>
			Created with Pixso.
	</desc>
	<defs>
		<clipPath id="clip414_75">
			<rect id="Frame" width="76.800003" height="58.700001" transform="translate(18.149414 0.000000) rotate(18.010317)" fill="white" fill-opacity="0"/>
		</clipPath>
	</defs>
	<rect id="Frame" width="76.800003" height="58.700001" transform="translate(18.149414 0.000000) rotate(18.010317)" fill="#FFFFFF" fill-opacity="0"/>
	<g clip-path="url(#clip414_75)">
		<path id="Vector" d="M79.76 57.88C75.87 69.87 56.45 74.28 36.39 67.76C16.26 61.11 3.15 46.12 7.01 34.23C7.23 33.57 7.54 32.93 7.82 32.39C13.03 21.88 31.44 18.3 50.46 24.49C69.48 30.67 82.26 44.39 80.26 56.05C80.1 56.52 79.98 57.22 79.76 57.88Z" fill="#F7AD1A" fill-opacity="1.000000" fill-rule="nonzero"/>
		<path id="Vector" d="M80.19 55.92C78.76 58.4 75.95 59.9 73.22 62.17C70.48 64.44 67.17 65.88 63.37 64.65C61.47 64.03 59.13 64.11 57.11 64.82C53.89 65.98 50.19 65.41 47.27 63.72C44.7 62.26 41.5 61.42 38.33 61.45C33.21 61.36 29.37 59.59 26.15 56.23C23.25 53.18 19.88 50.93 16.55 49.53C11.63 47.51 9.46 44.49 8.86 39.88C8.52 37.03 7.49 34.7 7.73 32.36C12.93 21.85 31.34 18.27 50.36 24.45C69.41 30.54 82.19 44.27 80.19 55.92Z" fill="#EE8034" fill-opacity="1.000000" fill-rule="nonzero"/>
		<path id="Vector" d="M81.74 51.8C80.66 55.13 77.42 56.7 74.24 59.35C71.51 61.61 68.2 63.06 64.39 61.82C62.49 61.21 60.15 61.29 58.13 62C54.82 63.13 51.21 62.59 48.29 60.9C45.72 59.43 42.52 58.6 39.36 58.63C34.23 58.54 30.39 56.76 27.17 53.4C24.27 50.36 20.9 48.11 17.54 46.8C12.53 44.75 10.39 41.64 9.79 37.03C9.38 33.74 8.1 30.9 8.99 28.14C12.33 17.87 31.28 14.89 51.35 21.41C71.42 27.94 85.08 41.53 81.74 51.8Z" fill="#F7ADBB" fill-opacity="1.000000" fill-rule="nonzero"/>
		<path id="Vector" d="M84.04 45.71C80.14 57.69 60.76 62.01 40.69 55.49C20.63 48.96 7.52 33.97 11.38 22.09C11.75 20.95 12.31 19.87 12.97 18.82C18.97 9.41 36.57 6.4 54.63 12.28C72.8 18.18 85.26 30.96 84.65 42.23C84.59 43.36 84.41 44.57 84.04 45.71Z" fill="#EE8034" fill-opacity="1.000000" fill-rule="nonzero"/>
		<path id="Vector" d="M84.48 41.75C78.39 51.13 60.8 54.13 42.63 48.23C24.56 42.35 12.1 29.58 12.68 18.41C18.81 8.94 36.4 5.93 54.47 11.81C72.64 17.71 85.1 30.49 84.48 41.75Z" fill="#F7AD1A" fill-opacity="1.000000" fill-rule="nonzero"/>
		<path id="Vector" d="M54.88 19.61C54.94 23.95 46.97 27.45 37.16 27.52C27.36 27.6 19.3 24.24 19.21 20.01C19.15 15.67 27.12 12.17 36.92 12.09C46.76 11.93 54.78 15.38 54.88 19.61Z" fill="#FFC928" fill-opacity="1.000000" fill-rule="nonzero"/>
		<path id="Vector" d="M61.36 32.66C60.98 32.53 60.77 33.2 61.15 33.32C61.65 33.38 61.84 32.81 61.36 32.66Z" fill="#EE8034" fill-opacity="1.000000" fill-rule="nonzero"/>
		<path id="Vector" d="M67.63 28.91C66.39 28.51 65.74 30.51 66.98 30.91C68.22 31.31 68.86 29.31 67.63 28.91Z" fill="#EE8034" fill-opacity="1.000000" fill-rule="nonzero"/>
		<path id="Vector" d="M49.61 34.52C48.38 34.11 47.76 36.02 48.99 36.42C50.23 36.82 50.94 34.95 49.61 34.52Z" fill="#EE8034" fill-opacity="1.000000" fill-rule="nonzero"/>
		<path id="Vector" d="M32.64 32.05L32.55 32.02C32.17 31.89 31.95 32.56 32.33 32.68L32.43 32.71C32.81 32.84 33.02 32.17 32.64 32.05Z" fill="#EE8034" fill-opacity="1.000000" fill-rule="nonzero"/>
		<path id="Vector" d="M49.69 28.13C49.4 27.72 48.77 28.04 48.97 28.42C49.13 28.57 49.19 28.7 49.48 28.79C49.95 28.95 50.17 28.28 49.69 28.13Z" fill="#EE8034" fill-opacity="1.000000" fill-rule="nonzero"/>
		<path id="Vector" d="M58.53 16.8C58.15 16.68 57.93 17.35 58.31 17.47C58.69 17.59 58.91 16.93 58.53 16.8Z" fill="#EE8034" fill-opacity="1.000000" fill-rule="nonzero"/>
		<path id="Vector" d="M36.7 36.73L36.41 36.64C35.17 36.24 34.56 38.14 35.79 38.54L36.08 38.63C37.41 39.07 38.03 37.16 36.7 36.73Z" fill="#EE8034" fill-opacity="1.000000" fill-rule="nonzero"/>
		<path id="Vector" d="M18.61 20.23C18.23 19.79 17.6 19.8 17.16 20.18C16.9 20.31 16.72 20.56 16.62 20.85C16.44 21.42 16.79 21.95 17.26 22.11C17.74 22.26 18.24 22 18.49 21.56C19 21.3 18.93 20.54 18.61 20.23Z" fill="#EE8034" fill-opacity="1.000000" fill-rule="nonzero"/>
		<path id="Vector" d="M59.02 45.04C57.78 44.64 57.13 46.64 58.37 47.04C59.73 47.38 60.35 45.47 59.02 45.04Z" fill="#EE8034" fill-opacity="1.000000" fill-rule="nonzero"/>
	</g>
</svg>
